<svg width="405" height="310" viewBox="0 0 405 310" fill="none" xmlns="http://www.w3.org/2000/svg">
<path d="M96.7357 280.667C125.264 301.266 159.953 311.544 195.098 309.812C230.243 308.081 263.753 294.442 290.119 271.139C316.484 247.836 334.136 216.256 340.173 181.59C346.209 146.924 340.27 111.235 323.333 80.3919C306.396 49.5487 279.468 25.3865 246.976 11.8776C214.485 -1.63135 178.364 -3.68282 144.552 6.0604C110.74 15.8036 81.2497 36.7616 60.929 65.4888C40.6084 94.216 30.6671 129.002 32.7395 164.129L48.1661 163.219C46.3003 131.594 55.2505 100.276 73.5452 74.413C91.8398 48.5499 118.39 29.6814 148.831 20.9096C179.272 12.1378 211.792 13.9847 241.044 26.1468C270.296 38.3088 294.539 60.0621 309.788 87.8303C325.036 115.598 330.383 147.729 324.948 178.939C319.514 210.149 303.622 238.581 279.885 259.56C256.148 280.54 225.979 292.819 194.337 294.378C162.696 295.937 131.466 286.683 105.782 268.138L96.7357 280.667Z" fill="white"/>
<path d="M85.9569 212.383C81.3291 219.118 74.7723 224.295 67.148 227.235C59.5237 230.174 51.1885 230.739 43.2374 228.854C35.2863 226.97 28.0912 222.724 22.5974 216.675C17.1037 210.626 13.5682 203.057 12.4554 194.962C11.3426 186.866 12.7046 178.624 16.3625 171.317C20.0203 164.01 25.8029 157.98 32.9506 154.02C40.0983 150.06 48.2767 148.355 56.4114 149.128C64.5461 149.902 72.2566 153.118 78.53 158.354L68.1295 170.814C64.3703 167.677 59.7498 165.75 54.8752 165.286C50.0005 164.823 45.0997 165.845 40.8165 168.218C36.5334 170.591 33.0682 174.204 30.8763 178.582C28.6843 182.961 27.8682 187.9 28.535 192.751C29.2018 197.602 31.3204 202.138 34.6125 205.763C37.9046 209.388 42.2162 211.932 46.9808 213.061C51.7454 214.191 56.7402 213.852 61.3089 212.091C65.8777 210.329 69.8068 207.227 72.58 203.191L85.9569 212.383Z" fill="white"/>
<path d="M398.722 73.8571C409.329 91.6453 403.507 114.664 385.719 125.271C367.931 135.878 344.912 130.057 334.305 112.269C323.698 94.4804 329.519 71.4614 347.307 60.8543C365.096 50.2473 388.115 56.0688 398.722 73.8571ZM347.213 104.572C353.569 115.231 367.363 118.72 378.022 112.363C388.681 106.007 392.17 92.2134 385.814 81.554C379.458 70.8946 365.664 67.4061 355.004 73.7622C344.345 80.1184 340.856 93.9123 347.213 104.572Z" fill="white"/>
<path d="M297.921 90.3032C334.126 151.021 314.256 229.592 253.538 265.797C192.821 302.003 114.25 282.132 78.0443 221.415C41.8388 160.697 61.7096 82.126 122.427 45.9206C183.144 9.71514 261.716 29.5859 297.921 90.3032ZM91.1135 213.622C123.015 267.121 192.246 284.629 245.745 252.728C299.245 220.827 316.753 151.596 284.852 98.0964C252.95 44.597 183.719 27.0884 130.22 58.9898C76.7207 90.8912 59.2121 160.122 91.1135 213.622Z" fill="white"/>
<path fill-rule="evenodd" clip-rule="evenodd" d="M234.013 220.605C339.112 154.93 406.582 73.318 384.712 38.32C362.842 3.32204 259.914 28.191 154.815 93.8664C49.7159 159.542 -17.7545 241.154 4.11547 276.152C25.9854 311.15 128.914 286.281 234.013 220.605ZM226.294 207.96C323.847 147 388.517 74.5158 370.737 46.063C352.957 17.6103 259.461 43.963 161.907 104.923C64.3532 165.884 -0.316273 238.368 17.4636 266.82C35.2435 295.273 128.74 268.921 226.294 207.96Z" fill="white"/>
</svg>
